<svg width="400" height="300" xmlns="http://www.w3.org/2000/svg">
  <!-- Background -->
  <rect width="400" height="300" fill="#f5f9f5" rx="10" ry="10"/>
  
  <!-- Lightbulb -->
  <g transform="translate(200, 120)">
    <path d="M0,-70 C-40,-70 -40,-20 -20,0 C-10,10 -10,30 -10,40 L10,40 C10,30 10,10 20,0 C40,-20 40,-70 0,-70 Z" 
          fill="#F1C40F" stroke="#F39C12" stroke-width="2"/>
    <rect x="-15" y="40" width="30" height="10" fill="#E67E22" rx="3" ry="3"/>
    <rect x="-10" y="50" width="20" height="5" fill="#E67E22" rx="2" ry="2"/>
    
    <!-- Light Rays -->
    <line x1="-50" y1="-50" x2="-35" y2="-35" stroke="#F1C40F" stroke-width="3"/>
    <line x1="50" y1="-50" x2="35" y2="-35" stroke="#F1C40F" stroke-width="3"/>
    <line x1="-60" y1="0" x2="-40" y2="0" stroke="#F1C40F" stroke-width="3"/>
    <line x1="60" y1="0" x2="40" y2="0" stroke="#F1C40F" stroke-width="3"/>
    <line x1="0" y1="-90" x2="0" y2="-70" stroke="#F1C40F" stroke-width="3"/>
  </g>
  
  <!-- Leaf inside lightbulb -->
  <path d="M180,120 C200,80 240,100 220,120 C240,140 200,160 180,120 Z" fill="#2ECC71"/>
  
  <!-- Eco Tips Text -->
  <g transform="translate(200, 230)">
    <rect x="-120" y="-20" width="240" height="40" fill="#2ECC71" rx="10" ry="10"/>
    <text x="0" y="5" font-family="Arial" font-weight="bold" font-size="18" fill="white" text-anchor="middle">Eco Tips</text>
  </g>
  
  <!-- Small Icons -->
  <g transform="translate(80, 50)">
    <circle cx="0" cy="0" r="15" fill="#3498DB"/>
    <text x="0" y="5" font-family="Arial" font-weight="bold" font-size="14" fill="white" text-anchor="middle">H₂O</text>
  </g>
  
  <g transform="translate(320, 50)">
    <circle cx="0" cy="0" r="15" fill="#2ECC71"/>
    <path d="M-5,-5 L-5,5 L10,0 Z" fill="white"/>
  </g>
</svg>