<svg width="400" height="300" xmlns="http://www.w3.org/2000/svg">
  <!-- Background -->
  <rect width="400" height="300" fill="#f5f9f5" rx="10" ry="10"/>
  
  <!-- Trees -->
  <circle cx="100" cy="200" r="50" fill="#2ECC71" opacity="0.3"/>
  <rect x="90" y="150" width="20" height="100" fill="#8B4513" rx="5" ry="5"/>
  <circle cx="100" cy="140" r="40" fill="#2ECC71"/>
  
  <circle cx="300" cy="220" r="40" fill="#2ECC71" opacity="0.3"/>
  <rect x="290" y="180" width="20" height="80" fill="#8B4513" rx="5" ry="5"/>
  <circle cx="300" cy="170" r="30" fill="#2ECC71"/>
  
  <!-- Recycling Symbol -->
  <g transform="translate(200, 130) scale(0.8)">
    <path d="M30,70 L70,70 L50,30 Z" fill="#3498DB" transform="rotate(0 50 50)"/>
    <path d="M30,70 L70,70 L50,30 Z" fill="#F1C40F" transform="rotate(120 50 50)"/>
    <path d="M30,70 L70,70 L50,30 Z" fill="#2ECC71" transform="rotate(240 50 50)"/>
  </g>
  
  <!-- CO2 Reduction Symbol -->
  <text x="190" y="80" font-family="Arial" font-weight="bold" font-size="24" fill="#34495E">CO₂</text>
  <line x1="170" y1="90" x2="230" y2="90" stroke="#E74C3C" stroke-width="3"/>
</svg>